<svg width="40" height="40" fill="none" xmlns="http://www.w3.org/2000/svg"><path d="M26.528 4.156a1 1 0 1 0-1.046 1.704c4.516 2.768 8.24 6.828 8.52 14.18A1 1 0 0 0 36 19.964c-.314-8.198-4.556-12.796-9.472-15.808Zm-2.356 5.3a1 1 0 0 1 1.388-.268c3.214 2.17 5.43 5.276 5.776 8.848.032.32.048.646.048.974a1 1 0 1 1-2 0c0-.264-.014-.524-.04-.78-.272-2.836-2.048-5.456-4.904-7.386a1 1 0 0 1-.268-1.388Zm-14.012 1.42a10.316 10.316 0 0 0-5.228 13.622l2.446 5.498.18 4.64a1.5 1.5 0 0 0 2.108 1.312l19.454-8.66a1.5 1.5 0 0 0 .436-2.446l-3.328-3.238-2.448-5.498a10.316 10.316 0 0 0-13.62-5.228v-.002Zm-3.4 12.808a8.316 8.316 0 0 1 15.192-6.764l2.604 5.85 3.076 2.99-18.104 8.06-.166-4.286-2.604-5.85h.002Zm14.596 12.068a2.98 2.98 0 0 1-3.696-1.08l5.37-2.388a2.98 2.98 0 0 1-1.674 3.468Z" fill="#FFD25D"/></svg>