<svg width="40" height="40" viewBox="0 0 40 40" fill="none" xmlns="http://www.w3.org/2000/svg">
<path d="M3.33337 24.5833C3.33337 26.0199 3.90406 27.3977 4.91988 28.4135C5.9357 29.4293 7.31345 30 8.75004 30H10V34.5833C10.0003 34.97 10.1081 35.3489 10.3114 35.6777C10.5147 36.0065 10.8055 36.2723 11.1513 36.4453C11.4971 36.6183 11.8841 36.6916 12.2692 36.6571C12.6543 36.6226 13.0222 36.4817 13.3317 36.25L16.8734 33.6L17.5334 30.9617C17.6517 30.485 17.8284 30.0283 18.0534 29.595L12.5 33.7533L12.4984 27.5H8.75004C7.97649 27.5 7.23463 27.1927 6.68765 26.6457C6.14066 26.0987 5.83337 25.3569 5.83337 24.5833V10.4167C5.83337 8.80667 7.14004 7.5 8.75004 7.5H31.25C32.86 7.5 34.1667 8.80667 34.1667 10.4167V16.825C35.1082 17.0556 35.9712 17.5331 36.6667 18.2083V10.4167C36.6667 9.70534 36.5266 9.00098 36.2544 8.3438C35.9822 7.68662 35.5832 7.08949 35.0802 6.5865C34.5772 6.08352 33.9801 5.68453 33.3229 5.41232C32.6657 5.14011 31.9614 5 31.25 5H8.75004C7.31345 5 5.9357 5.57068 4.91988 6.5865C3.90406 7.60233 3.33337 8.98008 3.33337 10.4167V24.5833ZM30.1634 19.45L20.3267 29.2867C19.7528 29.8598 19.3455 30.5782 19.1484 31.365L18.385 34.4167C18.3091 34.7203 18.3132 35.0384 18.3968 35.34C18.4804 35.6416 18.6407 35.9164 18.862 36.1376C19.0834 36.3589 19.3584 36.5189 19.66 36.6023C19.9617 36.6857 20.2798 36.6895 20.5834 36.6133L23.6334 35.8517C24.4208 35.6549 25.1398 35.2475 25.7134 34.6733L35.55 24.8367C35.9037 24.483 36.1843 24.0631 36.3757 23.601C36.5671 23.1388 36.6657 22.6435 36.6657 22.1433C36.6657 21.6431 36.5671 21.1478 36.3757 20.6857C36.1843 20.2236 35.9037 19.8037 35.55 19.45C35.1963 19.0963 34.7765 18.8157 34.3143 18.6243C33.8522 18.4329 33.3569 18.3344 32.8567 18.3344C32.3565 18.3344 31.8612 18.4329 31.3991 18.6243C30.937 18.8157 30.5171 19.0963 30.1634 19.45Z" fill="#C4C4C4"/>
</svg>
