<svg width="40" height="40" fill="none" xmlns="http://www.w3.org/2000/svg"><path d="M3.333 24.583A5.417 5.417 0 0 0 8.75 30H10v4.583a2.084 2.084 0 0 0 3.332 1.667l3.541-2.65.66-2.638a6.21 6.21 0 0 1 .52-1.367L12.5 33.753l-.002-6.253H8.75a2.917 2.917 0 0 1-2.917-2.917V10.417A2.918 2.918 0 0 1 8.75 7.5h22.5a2.918 2.918 0 0 1 2.917 2.917v6.408a5.45 5.45 0 0 1 2.5 1.383v-7.791A5.417 5.417 0 0 0 31.25 5H8.75a5.417 5.417 0 0 0-5.417 5.417v14.166Zm26.83-5.133-9.836 9.837a4.473 4.473 0 0 0-1.179 2.078l-.763 3.052a1.812 1.812 0 0 0 2.198 2.196l3.05-.761a4.473 4.473 0 0 0 2.08-1.179l9.837-9.836a3.809 3.809 0 1 0-5.387-5.387Z" fill="#3CA1FF"/></svg>