<svg width="40" height="40" viewBox="0 0 40 40" fill="none" xmlns="http://www.w3.org/2000/svg">
<path d="M26.5279 4.15606C26.416 4.08363 26.2907 4.03431 26.1595 4.011C26.0282 3.9877 25.8936 3.99088 25.7635 4.02036C25.6335 4.04984 25.5107 4.10502 25.4023 4.18266C25.2939 4.2603 25.2022 4.35883 25.1324 4.47246C25.0627 4.58608 25.0163 4.71251 24.9962 4.8443C24.976 4.97609 24.9824 5.11059 25.0149 5.23987C25.0475 5.36916 25.1056 5.49063 25.1858 5.59714C25.266 5.70364 25.3667 5.79304 25.4819 5.86006C29.9979 8.62806 33.7219 12.6881 34.0019 20.0401C34.018 20.3007 34.1354 20.5447 34.329 20.72C34.5226 20.8952 34.7771 20.9877 35.0381 20.9778C35.299 20.9679 35.5457 20.8563 35.7255 20.6668C35.9052 20.4774 36.0037 20.2252 35.9999 19.9641C35.6859 11.7661 31.4439 7.16806 26.5279 4.15606ZM24.1719 9.45606C24.3205 9.23655 24.5502 9.08502 24.8105 9.03476C25.0707 8.98451 25.3403 9.03965 25.5599 9.18806C28.7739 11.3581 30.9899 14.4641 31.3359 18.0361C31.3679 18.3561 31.3839 18.6821 31.3839 19.0101C31.3839 19.2753 31.2786 19.5296 31.0911 19.7172C30.9035 19.9047 30.6492 20.0101 30.3839 20.0101C30.1187 20.0101 29.8644 19.9047 29.6768 19.7172C29.4893 19.5296 29.3839 19.2753 29.3839 19.0101C29.3839 18.7461 29.3699 18.4861 29.3439 18.2301C29.0719 15.3941 27.2959 12.7741 24.4399 10.8441C24.2204 10.6955 24.0689 10.4658 24.0186 10.2055C23.9684 9.94527 24.0235 9.67569 24.1719 9.45606ZM10.1599 10.8761C8.92213 11.4271 7.80498 12.2166 6.87232 13.1994C5.93965 14.1822 5.20974 15.3392 4.72426 16.6041C4.23877 17.8691 4.00724 19.2173 4.04288 20.5718C4.07851 21.9262 4.38062 23.2604 4.93194 24.4981L7.37794 29.9961L7.55794 34.6361C7.56754 34.8808 7.63692 35.1195 7.76003 35.3312C7.88314 35.543 8.05623 35.7214 8.26418 35.8508C8.47214 35.9802 8.70862 36.0568 8.95297 36.0737C9.19732 36.0907 9.44211 36.0475 9.66594 35.9481L29.1199 27.2881C29.344 27.1884 29.5401 27.0354 29.6913 26.8423C29.8425 26.6493 29.944 26.4221 29.987 26.1808C30.0301 25.9394 30.0133 25.6911 29.9381 25.4578C29.863 25.2244 29.7317 25.013 29.5559 24.8421L26.2279 21.6041L23.7799 16.1061C22.6671 13.6067 20.6069 11.6517 18.0527 10.6713C15.4984 9.69086 12.6593 9.76524 10.1599 10.8781V10.8761ZM6.75994 23.6841C5.90541 21.6765 5.87407 19.4136 6.6727 17.3831C7.47132 15.3527 9.03592 13.7175 11.0291 12.83C13.0223 11.9426 15.2845 11.874 17.3278 12.6391C19.3711 13.4042 21.0318 14.9417 21.9519 16.9201L24.5559 22.7701L27.6319 25.7601L9.52794 33.8201L9.36194 29.5341L6.75794 23.6841H6.75994ZM21.3559 35.7521C20.7117 36.0383 19.9868 36.0869 19.3101 35.8892C18.6334 35.6914 18.0487 35.2602 17.6599 34.6721L23.0299 32.2841C23.2063 32.9667 23.1349 33.6898 22.8284 34.3248C22.5219 34.9597 22.0001 35.4655 21.3559 35.7521Z" fill="#FFD25D"/>
</svg>
