<svg width="19" height="16" viewBox="0 0 19 16" fill="none" xmlns="http://www.w3.org/2000/svg">
<path d="M3.5625 14C3.5625 14 2.375 14 2.375 13C2.375 12 3.5625 9 9.5 9C15.4375 9 16.625 12 16.625 13C16.625 14 15.4375 14 15.4375 14H3.5625ZM9.5 8C10.4448 8 11.351 7.68393 12.0191 7.12132C12.6872 6.55871 13.0625 5.79565 13.0625 5C13.0625 4.20435 12.6872 3.44129 12.0191 2.87868C11.351 2.31607 10.4448 2 9.5 2C8.55517 2 7.64903 2.31607 6.98093 2.87868C6.31283 3.44129 5.9375 4.20435 5.9375 5C5.9375 5.79565 6.31283 6.55871 6.98093 7.12132C7.64903 7.68393 8.55517 8 9.5 8Z" fill="#666666"/>
</svg>
