<?xml version="1.0" encoding="utf-8"?>
<!-- Generator: Adobe Illustrator 26.3.1, SVG Export Plug-In . SVG Version: 6.00 Build 0)  -->
<svg version="1.1" id="Layer_1" xmlns="http://www.w3.org/2000/svg" xmlns:xlink="http://www.w3.org/1999/xlink" x="0px" y="0px"
	 viewBox="0 0 32 32" style="enable-background:new 0 0 32 32;" xml:space="preserve">
<style type="text/css">
	.st0{fill:none;}
	.st1{fill:#516D98;}
</style>
<path class="st0" d="M0,0h32v32H0V0z"/>
<path class="st1" d="M16,2.7c7.4,0,13.3,6,13.3,13.3s-6,13.3-13.3,13.3S2.7,23.4,2.7,16S8.6,2.7,16,2.7z M16,5.3
	C10.1,5.3,5.3,10.1,5.3,16S10.1,26.7,16,26.7S26.7,21.9,26.7,16S21.9,5.3,16,5.3z M21.1,9.8c0.3-0.2,0.7-0.2,1,0.1
	c0.3,0.3,0.3,0.7,0.1,1c-2.9,4.1-4.5,6.2-4.8,6.5c-0.8,0.8-2,0.8-2.8,0c-0.8-0.8-0.8-2,0-2.8C15.1,14.1,17.3,12.5,21.1,9.8z
	 M23.3,14.7c0.7,0,1.3,0.6,1.3,1.3s-0.6,1.3-1.3,1.3S22,16.7,22,16S22.6,14.7,23.3,14.7z M8.7,14.7c0.7,0,1.3,0.6,1.3,1.3
	s-0.6,1.3-1.3,1.3S7.3,16.7,7.3,16S7.9,14.7,8.7,14.7z M11.8,9.9c0.5,0.5,0.5,1.4,0,1.9c-0.5,0.5-1.4,0.5-1.9,0
	c-0.5-0.5-0.5-1.4,0-1.9C10.4,9.4,11.2,9.4,11.8,9.9z M16,7.3c0.7,0,1.3,0.6,1.3,1.3S16.7,10,16,10s-1.3-0.6-1.3-1.3
	S15.3,7.3,16,7.3z"/>
</svg>
