<?xml version="1.0" encoding="iso-8859-1"?>
<svg version="1.1" id="Layer_1" xmlns="http://www.w3.org/2000/svg" xmlns:xlink="http://www.w3.org/1999/xlink" x="0px" y="0px"
	 viewBox="0 0 496 496" style="enable-background:new 0 0 496 496;" xml:space="preserve">
<g>
	<g>
		<path d="M442.016,69.768l-89.892,52.252c-3.284-2.62-7.396-4.636-11.916-4.636c-10.624,0-19.264,8.436-19.264,19.072
			c0,1.604,0.252,3.04,0.624,4.54c-0.276,0.184-0.576,0.308-0.84,0.536l-88.972,76.4c-0.064,0.052-0.108,0.108-0.172,0.16
			c-2.236-0.912-4.672-1.444-7.236-1.444c-7.168,0-13.36,3.976-16.676,9.804l-80.26-9.416c-0.18-0.02-0.356,0-0.536-0.004
			c-2.4-7.908-9.668-13.716-18.344-13.716c-10.62,0-19.26,8.64-19.26,19.256c0,2.148,0.704,4.176,1.356,6.108l-67.344,79.904v13.032
			h8.044l69.552-81.796c2.348,1.016,4.932,2.004,7.652,2.004c7.056,0,13.168-3.852,16.528-9.528c0.18,0.04,0.356,0.1,0.544,0.12
			l80.528,9.444c2.528,7.688,9.688,13.296,18.216,13.296c10.62,0,19.256-8.644,19.256-19.268c0-2.348-0.484-4.58-1.26-6.668
			l88.48-75.992c0.06-0.052,0.104-0.12,0.164-0.172c2.748,1.512,5.86,2.452,9.22,2.452c10.624,0,19.256-8.636,19.256-19.26
			c0-0.448-0.096-0.864-0.128-1.304c0.06-0.036,0.092-0.044,0.156-0.084L468.84,70.344v-0.576H442.016z"/>
	</g>
</g>
<g>
	<g>
		<path d="M460.856,38.784H35.248c-19.38,0-35.144,15.864-35.144,35.244L0,363.944c0,19.38,15.764,35.156,35.144,35.156h139.244
			v34.868H147.2c-2.14,0-3.808,2.028-3.808,4.164v15.3c0,2.132,1.668,3.784,3.808,3.784h200.892c2.136,0,4.52-1.652,4.52-3.784
			v-15.3c0-2.132-2.384-4.164-4.52-4.164h-26.476V399.1H460.76c19.372,0,35.144-15.724,35.144-35.1L496,74.008
			C496,54.628,480.24,38.784,460.856,38.784z M247.512,371.988c-6.42,0-11.624-5.208-11.624-11.624
			c0-6.416,5.204-11.624,11.624-11.624c6.42,0,11.628,5.208,11.628,11.624C259.14,366.78,253.932,371.988,247.512,371.988z
			 M464.964,321.612L464.964,321.612H31.032V69.776h433.932V321.612z"/>
	</g>
</g>
<g>
</g>
<g>
</g>
<g>
</g>
<g>
</g>
<g>
</g>
<g>
</g>
<g>
</g>
<g>
</g>
<g>
</g>
<g>
</g>
<g>
</g>
<g>
</g>
<g>
</g>
<g>
</g>
<g>
</g>
</svg>
