<?xml version="1.0" encoding="utf-8"?>
<!-- Generator: Adobe Illustrator 16.0.0, SVG Export Plug-In . SVG Version: 6.00 Build 0)  -->
<!DOCTYPE svg PUBLIC "-//W3C//DTD SVG 1.1//EN" "http://www.w3.org/Graphics/SVG/1.1/DTD/svg11.dtd">
<svg version="1.1" id="Layer_1" xmlns="http://www.w3.org/2000/svg" xmlns:xlink="http://www.w3.org/1999/xlink" x="0px" y="0px"
	 width="628px" height="323px" viewBox="0 0 628 323" enable-background="new 0 0 628 323" xml:space="preserve">
<g>
	<g>
		<path fill="#7CC7DA" d="M594.223,287.882H35.112c-9.735,0-17.627-5.727-17.627-12.791V17.622c0-7.064,7.892-12.792,17.627-12.792
			h559.11c9.734,0,17.627,5.727,17.627,12.792v257.47C611.85,282.156,603.957,287.882,594.223,287.882z"/>
		<path fill="#FFFFFF" d="M35.112,276.644c-1.18,0-2.14-0.696-2.14-1.552V17.622c0-0.856,0.96-1.552,2.14-1.552h559.11
			c1.18,0,2.139,0.696,2.139,1.552v257.47c0,0.856-0.959,1.552-2.139,1.552H35.112z"/>
		<path fill="#7CC7DA" d="M603.049,318.596H24.95c-11.57,0-20.95-4.39-20.95-9.805v-11.042h620v11.042
			C624,314.206,614.619,318.596,603.049,318.596z"/>
		<g>
			<path fill="#ace0ed" d="M171.549,297.346h-57.993v-10.83c0-0.784,0.875-1.419,1.955-1.419h54.083c1.08,0,1.955,0.635,1.955,1.419
				V297.346z"/>
			<path fill="#ace0ed" d="M516.447,297.346h-57.994v-10.83c0-0.784,0.877-1.419,1.955-1.419h54.084c1.08,0,1.955,0.635,1.955,1.419
				V297.346z"/>
		</g>
		<polygon fill="#ace0ed" points="362.787,307.455 267.215,307.455 258.423,297.346 371.58,297.346 		"/>
		<ellipse fill="#ace0ed" cx="315.001" cy="10.45" rx="3.271" ry="2.373"/>
	</g>
</g>
</svg>
