<?xml version="1.0" encoding="utf-8"?>
<!-- Generator: Adobe Illustrator 16.0.0, SVG Export Plug-In . SVG Version: 6.00 Build 0)  -->
<!DOCTYPE svg PUBLIC "-//W3C//DTD SVG 1.1//EN" "http://www.w3.org/Graphics/SVG/1.1/DTD/svg11.dtd">
<svg version="1.1" id="Слой_1" xmlns="http://www.w3.org/2000/svg" xmlns:xlink="http://www.w3.org/1999/xlink" x="0px" y="0px"
	 width="628px" height="721px" viewBox="0 0 628 721" enable-background="new 0 0 628 721" xml:space="preserve">
<g id="Arrow_Drop_Down_Square">
	<path fill="#8F8F8F" stroke="#FFFFFF" stroke-width="10" stroke-miterlimit="10" d="M568.656,97.25H45.844
		C25.211,97.25,8.5,113.961,8.5,134.594v522.813c0,20.633,16.711,37.344,37.344,37.344h522.813
		c20.613,0,37.344-16.711,37.344-37.344V134.594C606,113.961,589.27,97.25,568.656,97.25z"/>
	<path id="Arrow_Drop_Down_1_" fill="#7B5D5D" stroke="#FFFFFF" stroke-width="60" stroke-miterlimit="10" d="M500.809,327.572
		c9.945-9.946-3.08-11.828-12.434-11.575H134.656c-14.949-0.405-31.172,10.019-12.505,28.686l168.524,166.855
		c12.042,12.042,12.473,11.61,24.083,0l168.39-166.72C486.335,341.767,497.448,330.932,500.809,327.572z"/>
</g>
</svg>
