<?xml version="1.0" encoding="utf-8"?>
<!-- Generator: Adobe Illustrator 16.0.0, SVG Export Plug-In . SVG Version: 6.00 Build 0)  -->
<!DOCTYPE svg PUBLIC "-//W3C//DTD SVG 1.1//EN" "http://www.w3.org/Graphics/SVG/1.1/DTD/svg11.dtd">
<svg version="1.1" id="Layer_1" xmlns="http://www.w3.org/2000/svg" xmlns:xlink="http://www.w3.org/1999/xlink" x="0px" y="0px"
	 width="151px" height="113px" viewBox="33 58 151 113" enable-background="new 33 58 151 113" xml:space="preserve">
<g id="Artboard_2">
	<g id="Component_1_1" transform="translate(37.5 29.75)">
		<g id="Ellipse_3" transform="translate(27 34)">
			<circle cx="14.5" cy="14.5" r="14.5"/>
			<circle cx="14.5" cy="14.5" r="11"/>
		</g>
		<g id="Ellipse_4" transform="translate(64 34)">
			<circle cx="14.5" cy="14.5" r="14.5"/>
			<circle cx="14.5" cy="14.5" r="11"/>
		</g>
		<g id="Ellipse_5" transform="translate(100 34)">
			<circle cx="14.5" cy="14.5" r="14.5"/>
			<circle cx="14.5" cy="14.5" r="11"/>
		</g>
		<g id="Path_1" transform="translate(30.823 64.785)">
			<path d="M10.788,67.43c-4.019,0-7.288-3.27-7.288-7.289V10.825c0-0.705,0.836-1.533,2.213-2.814
				c0.472-0.44,0.961-0.895,1.444-1.394l0.002-0.002l0.003-0.002C7.524,6.237,7.849,5.872,8.164,5.52
				c1.343-1.505,1.745-1.857,2.624-1.857c1.966,0,3.803,0.743,5.174,2.092c1.363,1.342,2.114,3.143,2.114,5.071v49.315
				C18.076,64.16,14.806,67.43,10.788,67.43z"/>
			<path d="M11.344,7.2c-0.193,0.206-0.373,0.431-0.567,0.649L9.67,9.054c-0.505,0.52-1.04,1.022-1.574,1.52
				C7.761,10.885,7.306,11.309,7,11.629v48.512c0,2.09,1.699,3.789,3.787,3.789c2.089,0,3.788-1.699,3.788-3.789V10.825
				C14.576,8.954,13.196,7.453,11.344,7.2 M10.788,0.162c5.958,0,10.788,4.705,10.788,10.663V60.14
				c0,5.959-4.83,10.789-10.788,10.789S0,66.1,0,60.141V10.825c0-2.884,2.635-4.572,4.643-6.643
				C6.444,2.318,7.713,0.162,10.788,0.162z"/>
		</g>
		<g id="Path_2" transform="translate(67.81 64.785)">
			<path d="M10.788,67.43c-4.019,0-7.287-3.27-7.287-7.289V10.825c0-0.705,0.836-1.533,2.211-2.814
				c0.474-0.44,0.961-0.895,1.445-1.394l0.002-0.002l0.002-0.002C7.524,6.237,7.849,5.872,8.165,5.52
				c1.342-1.505,1.744-1.857,2.623-1.857c1.965,0,3.803,0.743,5.174,2.092c1.363,1.342,2.115,3.143,2.115,5.071v49.315
				C18.077,64.16,14.806,67.43,10.788,67.43z"/>
			<path d="M11.344,7.2c-0.192,0.206-0.373,0.431-0.567,0.649L9.67,9.054c-0.504,0.52-1.039,1.022-1.573,1.52
				c-0.335,0.311-0.791,0.735-1.097,1.055v48.512c0,2.09,1.698,3.789,3.787,3.789c2.09,0,3.789-1.699,3.789-3.789V10.825
				C14.577,8.954,13.195,7.453,11.344,7.2 M10.788,0.162c5.959,0,10.789,4.705,10.789,10.663V60.14
				c0,5.959-4.83,10.789-10.789,10.789C4.831,70.929,0,66.1,0,60.141V10.825c0-2.884,2.636-4.572,4.644-6.643
				C6.444,2.318,7.713,0.162,10.788,0.162z"/>
		</g>
		<g id="Path_3" transform="translate(104.797 64.785)">
			<path d="M10.788,67.43c-4.019,0-7.288-3.27-7.288-7.289V10.825c0-0.705,0.836-1.533,2.212-2.814
				c0.474-0.44,0.962-0.895,1.444-1.394l0.003-0.002l0.002-0.002C7.525,6.237,7.849,5.872,8.164,5.52
				c1.342-1.505,1.745-1.857,2.624-1.857c1.965,0,3.802,0.743,5.173,2.092c1.364,1.342,2.115,3.143,2.115,5.071v49.315
				C18.076,64.16,14.807,67.43,10.788,67.43z"/>
			<path d="M11.344,7.2c-0.191,0.206-0.373,0.431-0.566,0.649L9.67,9.054c-0.504,0.52-1.039,1.022-1.572,1.52
				C7.762,10.885,7.307,11.309,7,11.629v48.512c0,2.09,1.699,3.789,3.788,3.789c2.088,0,3.788-1.699,3.788-3.789V10.825
				C14.576,8.954,13.195,7.453,11.344,7.2 M10.788,0.162c5.958,0,10.788,4.705,10.788,10.663V60.14
				c0,5.959-4.83,10.789-10.788,10.789S0,66.1,0,60.141V10.825c0-2.884,2.637-4.572,4.645-6.643
				C6.443,2.318,7.715,0.162,10.788,0.162z"/>
		</g>
		<g id="Rectangle_2" transform="translate(0 63)">
			<path d="M7,0h6c3.866,0,7,3.134,7,7v59c0,3.866-3.134,7-7,7H7c-3.866,0-7-3.134-7-7V7C0,3.134,3.134,0,7,0z"/>
			<path d="M7,3.5h6c1.933,0,3.5,1.567,3.5,3.5v59c0,1.934-1.567,3.5-3.5,3.5H7c-1.934,0-3.5-1.566-3.5-3.5V7
				C3.5,5.067,5.067,3.5,7,3.5z"/>
		</g>
		<g id="Rectangle_3" transform="translate(15 84)">
			<rect width="128" height="19"/>
			<rect x="3.5" y="3.5" width="121" height="12"/>
		</g>
		<line id="Line_1" fill="none" x1="154.5" y1="11.5" x2="154.5" y2="136.5"/>
	</g>
</g>
</svg>
