<svg xmlns="http://www.w3.org/2000/svg" xmlns:xlink="http://www.w3.org/1999/xlink" width="425" height="153" viewBox="0 0 425 153">
  <defs>
    <clipPath id="clip-Artboard_2">
      <rect width="425" height="153"/>
    </clipPath>
  </defs>
  <g id="Artboard_2" data-name="Artboard – 2" clip-path="url(#clip-Artboard_2)">
    <g id="Ellipse_3" data-name="Ellipse 3" transform="translate(40 29.25)" fill="#fff" stroke="#4d8677" stroke-width="7">
      <circle cx="14.5" cy="14.5" r="14.5" stroke="none"/>
      <circle cx="14.5" cy="14.5" r="11" fill="none"/>
    </g>
    <g id="Ellipse_4" data-name="Ellipse 4" transform="translate(77 29.25)" fill="#fff" stroke="#4d8677" stroke-width="7">
      <circle cx="14.5" cy="14.5" r="14.5" stroke="none"/>
      <circle cx="14.5" cy="14.5" r="11" fill="none"/>
    </g>
    <g id="Ellipse_5" data-name="Ellipse 5" transform="translate(113 29.25)" fill="#fff" stroke="#4d8677" stroke-width="7">
      <circle cx="14.5" cy="14.5" r="14.5" stroke="none"/>
      <circle cx="14.5" cy="14.5" r="11" fill="none"/>
    </g>
    <g id="Path_1" data-name="Path 1" transform="translate(43.823 60.035)" fill="#fff">
      <path d="M 10.78792190551758 67.42930603027344 C 6.769346714019775 67.42930603027344 3.499996900558472 64.15995788574219 3.499996900558472 60.14139175415039 L 3.499996900558472 10.82516765594482 C 3.499996900558472 10.12085437774658 4.335721969604492 9.292204856872559 5.712121963500977 8.01117992401123 C 6.184446811676025 7.571579933166504 6.672859191894531 7.117017269134521 7.156609535217285 6.617867469787598 L 7.158896923065186 6.615504741668701 L 7.161184310913086 6.613142490386963 C 7.524284362792969 6.237079620361328 7.849472045898438 5.872329711914062 8.163947105407715 5.519579887390137 C 9.505971908569336 4.014267444610596 9.908984184265137 3.662354707717896 10.78792190551758 3.662354707717896 C 12.75307178497314 3.662354707717896 14.59035968780518 4.405279636383057 15.96132183074951 5.754292488098145 C 17.32489776611328 7.096017360687256 18.07584762573242 8.896880149841309 18.07584762573242 10.82516765594482 L 18.07584762573242 60.14139175415039 C 18.07584762573242 64.15995788574219 14.80649662017822 67.42930603027344 10.78792190551758 67.42930603027344 Z" stroke="none"/>
      <path d="M 11.34404182434082 7.199867248535156 C 11.1511697769165 7.405384063720703 10.97088718414307 7.630607604980469 10.77648830413818 7.848663330078125 L 9.669955253601074 9.053661346435547 C 9.165838241577148 9.573814392089844 8.630838394165039 10.07604598999023 8.096621513366699 10.5732307434082 C 7.761479377746582 10.88516235351562 7.306456565856934 11.30866241455078 7.000004768371582 11.62883377075195 L 7.000004768371582 60.14138031005859 C 7.000004768371582 62.23004531860352 8.699254989624023 63.92929840087891 10.78792190551758 63.92929840087891 C 12.87658882141113 63.92929840087891 14.57583808898926 62.23004531860352 14.57583808898926 60.14138031005859 L 14.57583808898926 10.82516479492188 C 14.57583808898926 8.954273223876953 13.19541168212891 7.45263671875 11.34404182434082 7.199867248535156 M 10.78792190551758 0.1623458862304688 C 16.74592208862305 0.1623458862304688 21.57583808898926 4.867164611816406 21.57583808898926 10.82516479492188 L 21.57583808898926 60.14138031005859 C 21.57583808898926 66.09938049316406 16.74592208862305 70.92929840087891 10.78792190551758 70.92929840087891 C 4.829921722412109 70.92929840087891 5.7220458984375e-06 66.09938049316406 5.7220458984375e-06 60.14138031005859 L 5.7220458984375e-06 10.82516479492188 C 5.7220458984375e-06 7.941497802734375 2.635639190673828 6.253593444824219 4.643287658691406 4.182044982910156 C 6.443821907043457 2.317230224609375 7.713588714599609 0.1623458862304688 10.78792190551758 0.1623458862304688 Z" stroke="none" fill="#4d8677"/>
    </g>
    <g id="Path_2" data-name="Path 2" transform="translate(80.81 60.035)" fill="#fff">
      <path d="M 10.78792190551758 67.42930603027344 C 6.769346714019775 67.42930603027344 3.499996900558472 64.15995788574219 3.499996900558472 60.14139175415039 L 3.499996900558472 10.82516765594482 C 3.499996900558472 10.12085437774658 4.335721969604492 9.292204856872559 5.712121963500977 8.01117992401123 C 6.184446811676025 7.571579933166504 6.672859191894531 7.117017269134521 7.156609535217285 6.617867469787598 L 7.158896923065186 6.615504741668701 L 7.161184310913086 6.613142490386963 C 7.524284362792969 6.237079620361328 7.849472045898438 5.872329711914062 8.163947105407715 5.519579887390137 C 9.505971908569336 4.014267444610596 9.908984184265137 3.662354707717896 10.78792190551758 3.662354707717896 C 12.75307178497314 3.662354707717896 14.59035968780518 4.405279636383057 15.96132183074951 5.754292488098145 C 17.32489776611328 7.096017360687256 18.07584762573242 8.896880149841309 18.07584762573242 10.82516765594482 L 18.07584762573242 60.14139175415039 C 18.07584762573242 64.15995788574219 14.80649662017822 67.42930603027344 10.78792190551758 67.42930603027344 Z" stroke="none"/>
      <path d="M 11.34404182434082 7.199867248535156 C 11.1511697769165 7.405384063720703 10.97088718414307 7.630607604980469 10.77648830413818 7.848663330078125 L 9.669955253601074 9.053661346435547 C 9.165838241577148 9.573814392089844 8.630838394165039 10.07604598999023 8.096621513366699 10.5732307434082 C 7.761479377746582 10.88516235351562 7.306456565856934 11.30866241455078 7.000004768371582 11.62883377075195 L 7.000004768371582 60.14138031005859 C 7.000004768371582 62.23004531860352 8.699254989624023 63.92929840087891 10.78792190551758 63.92929840087891 C 12.87658882141113 63.92929840087891 14.57583808898926 62.23004531860352 14.57583808898926 60.14138031005859 L 14.57583808898926 10.82516479492188 C 14.57583808898926 8.954273223876953 13.19541168212891 7.45263671875 11.34404182434082 7.199867248535156 M 10.78792190551758 0.1623458862304688 C 16.74592208862305 0.1623458862304688 21.57583808898926 4.867164611816406 21.57583808898926 10.82516479492188 L 21.57583808898926 60.14138031005859 C 21.57583808898926 66.09938049316406 16.74592208862305 70.92929840087891 10.78792190551758 70.92929840087891 C 4.829921722412109 70.92929840087891 5.7220458984375e-06 66.09938049316406 5.7220458984375e-06 60.14138031005859 L 5.7220458984375e-06 10.82516479492188 C 5.7220458984375e-06 7.941497802734375 2.635639190673828 6.253593444824219 4.643287658691406 4.182044982910156 C 6.443821907043457 2.317230224609375 7.713588714599609 0.1623458862304688 10.78792190551758 0.1623458862304688 Z" stroke="none" fill="#4d8677"/>
    </g>
    <g id="Path_3" data-name="Path 3" transform="translate(117.797 60.035)" fill="#fff">
      <path d="M 10.78792190551758 67.42930603027344 C 6.769346714019775 67.42930603027344 3.499996900558472 64.15995788574219 3.499996900558472 60.14139175415039 L 3.499996900558472 10.82516765594482 C 3.499996900558472 10.12085437774658 4.335721969604492 9.292204856872559 5.712121963500977 8.01117992401123 C 6.184446811676025 7.571579933166504 6.672859191894531 7.117017269134521 7.156609535217285 6.617867469787598 L 7.158896923065186 6.615504741668701 L 7.161184310913086 6.613142490386963 C 7.524284362792969 6.237079620361328 7.849472045898438 5.872329711914062 8.163947105407715 5.519579887390137 C 9.505971908569336 4.014267444610596 9.908984184265137 3.662354707717896 10.78792190551758 3.662354707717896 C 12.75307178497314 3.662354707717896 14.59035968780518 4.405279636383057 15.96132183074951 5.754292488098145 C 17.32489776611328 7.096017360687256 18.07584762573242 8.896880149841309 18.07584762573242 10.82516765594482 L 18.07584762573242 60.14139175415039 C 18.07584762573242 64.15995788574219 14.80649662017822 67.42930603027344 10.78792190551758 67.42930603027344 Z" stroke="none"/>
      <path d="M 11.34404182434082 7.199867248535156 C 11.1511697769165 7.405384063720703 10.97088718414307 7.630607604980469 10.77648830413818 7.848663330078125 L 9.669955253601074 9.053661346435547 C 9.165838241577148 9.573814392089844 8.630838394165039 10.07604598999023 8.096621513366699 10.5732307434082 C 7.761479377746582 10.88516235351562 7.306456565856934 11.30866241455078 7.000004768371582 11.62883377075195 L 7.000004768371582 60.14138031005859 C 7.000004768371582 62.23004531860352 8.699254989624023 63.92929840087891 10.78792190551758 63.92929840087891 C 12.87658882141113 63.92929840087891 14.57583808898926 62.23004531860352 14.57583808898926 60.14138031005859 L 14.57583808898926 10.82516479492188 C 14.57583808898926 8.954273223876953 13.19541168212891 7.45263671875 11.34404182434082 7.199867248535156 M 10.78792190551758 0.1623458862304688 C 16.74592208862305 0.1623458862304688 21.57583808898926 4.867164611816406 21.57583808898926 10.82516479492188 L 21.57583808898926 60.14138031005859 C 21.57583808898926 66.09938049316406 16.74592208862305 70.92929840087891 10.78792190551758 70.92929840087891 C 4.829921722412109 70.92929840087891 5.7220458984375e-06 66.09938049316406 5.7220458984375e-06 60.14138031005859 L 5.7220458984375e-06 10.82516479492188 C 5.7220458984375e-06 7.941497802734375 2.635639190673828 6.253593444824219 4.643287658691406 4.182044982910156 C 6.443821907043457 2.317230224609375 7.713588714599609 0.1623458862304688 10.78792190551758 0.1623458862304688 Z" stroke="none" fill="#4d8677"/>
    </g>
    <g id="Rectangle_2" data-name="Rectangle 2" transform="translate(13 58.25)" fill="#fff" stroke="#4d8677" stroke-width="7">
      <rect width="20" height="73" rx="7" stroke="none"/>
      <rect x="3.5" y="3.5" width="13" height="66" rx="3.5" fill="none"/>
    </g>
    <g id="Rectangle_3" data-name="Rectangle 3" transform="translate(28 79.25)" fill="#fff" stroke="#4d8677" stroke-width="7">
      <rect width="128" height="19" stroke="none"/>
      <rect x="3.5" y="3.5" width="121" height="12" fill="none"/>
    </g>
    <line id="Line_1" data-name="Line 1" y2="125" transform="translate(167.5 6.75)" fill="none" stroke="#000" stroke-linecap="round" stroke-width="5"/>
    <text id="VIRTUAL_QUEUING" data-name="VIRTUAL
QUEUING" transform="translate(175 65.25)" font-size="75" font-family="LetterGothicStd-Bold, Letter Gothic Std" font-weight="700" letter-spacing="-0.174em"><tspan x="0" y="0">VIRTUAL</tspan><tspan x="0" y="62">QUEUING</tspan></text>
  </g>
</svg>
